<?xml version="1.0" encoding="UTF-8"?>
<svg id="Layer_1" data-name="Layer 1" xmlns="http://www.w3.org/2000/svg" viewBox="0 0 100 100">
  <defs>
    <style>
      .cls-1 {
        fill: #82c4b2;
      }
    </style>
  </defs>
  <path class="cls-1" d="M88.72.45c.6.15,1.23.13,1.84.24,4.78.84,8.48,5.07,8.89,9.87v78.7c-.57,5.9-4.99,9.91-10.87,10.2H11.33c-5.51-.24-9.92-4.17-10.67-9.64-.05-.36.08-.8-.21-1.1V11.18c.28-.3.16-.74.21-1.1C1.39,4.78,5.73.69,11.13.54l.15-.09h77.44ZM31.82,23.01c0-4.87-3.95-8.82-8.82-8.82s-8.82,3.95-8.82,8.82,3.95,8.82,8.82,8.82,8.82-3.95,8.82-8.82ZM85.82,85.72v-31.76c-.25-11.71-9.02-19.19-20.71-17.12-4.55.8-8.41,3.57-11,7.32v-6.19h-14.16l-.15.15v47.61h14.31v-26.06c.27-5.07,2.67-9.29,8.16-9.62,6.2-.37,8.48,3.98,8.76,9.52v26.15s14.79,0,14.79,0ZM15.63,37.96v47.76h14.89v-47.76h-14.89Z"/>
</svg>