<?xml version="1.0" encoding="UTF-8"?>
<svg id="Layer_1" data-name="Layer 1" xmlns="http://www.w3.org/2000/svg" viewBox="0 0 145 100">
  <defs>
    <style>
      .cls-1 {
        fill: #82c4b2;
      }
    </style>
  </defs>
  <path class="cls-1" d="M131.82,99.5H13.16c-.56-.47-3.73-.56-3.15-1.66l41.6-41.77c5.31,3.75,11.5,13.93,18.13,14.98,11.49,1.82,15.84-9.11,23.63-14.98l41.6,41.77c.44.83-2.56,1.58-3.15,1.66Z"/>
  <path class="cls-1" d="M2.5,11.23c.48-1.01.53-2.22,1.03-3.23.13-.26-.07-.44.47-.34l41.95,42.44L4,92.35c-.54.1-.33-.08-.47-.34-.27-.54-.96-2.67-1.03-3.23V11.23Z"/>
  <path class="cls-1" d="M13.38.59l117.5-.09c.7.08,4.42.63,4.22,1.52l-59.59,59.96c-1.59,1.39-4.44,1.39-6.03,0L9.88,1.75l3.49-1.16Z"/>
  <polygon class="cls-1" points="141.39 7.66 142.5 12.19 142.5 87.55 141.25 92.35 99.03 49.91 141.39 7.66"/>
</svg>